<svg width="44" height="44" viewBox="0 0 44 44" fill="none" xmlns="http://www.w3.org/2000/svg">
                        <path d="M44 22C44 38.72 38.72 44 22 44C5.28 44 0 38.72 0 22C0 5.28 5.28 0 22 0C38.72 0 44 5.28 44 22Z" fill="#067DFD"/>
                        <path d="M10 14.4002L18.6148 9V30.4952L11.7679 34.7842V17.1738L10 18.2805V14.4002Z" fill="white"/>
                        <path d="M34 30.9544C33.3454 27.6436 31.9168 24.5991 29.8909 22C31.9168 19.4055 33.3454 16.3564 34 13.0456L27.5545 9C27.5545 12.0858 26.5893 14.9513 24.9361 17.3437C23.6269 19.2356 21.8877 20.8336 19.8571 22C21.8925 23.1664 23.6317 24.7644 24.9361 26.6609C26.5893 29.0533 27.5545 31.9187 27.5545 35L34 30.9544Z" fill="white"/>
                    </svg> 